{
    "asset" : {
        "generator" : "Khronos glTF Blender I/O v1.5.17",
        "version" : "2.0"
    },
    "scene" : 0,
    "scenes" : [
        {
            "name" : "Scene",
            "nodes" : [
                0
            ]
        }
    ],
    "nodes" : [
        {
            "mesh" : 0,
            "name" : "liquid",
            "rotation" : [
                -0.004489163402467966,
                0.004248848184943199,
                0.6617939472198486,
                0.7496603727340698
            ],
            "translation" : [
                0,
                0,
                -6.4886274337768555
            ]
        }
    ],
    "animations" : [
        {
            "channels" : [
                {
                    "sampler" : 0,
                    "target" : {
                        "node" : 0,
                        "path" : "rotation"
                    }
                }
            ],
            "name" : "liquidAction.001",
            "samplers" : [
                {
                    "input" : 3,
                    "interpolation" : "LINEAR",
                    "output" : 4
                }
            ]
        }
    ],
    "materials" : [
        {
            "doubleSided" : true,
            "name" : "CrackedMetal",
            "pbrMetallicRoughness" : {
                "baseColorFactor" : [
                    0.800000011920929,
                    0.800000011920929,
                    0.800000011920929,
                    1
                ],
                "roughnessFactor" : 0.20000000298023224
            }
        }
    ],
    "meshes" : [
        {
            "name" : "Mesh",
            "primitives" : [
                {
                    "attributes" : {
                        "POSITION" : 0,
                        "NORMAL" : 1
                    },
                    "indices" : 2,
                    "material" : 0
                }
            ]
        }
    ],
    "accessors" : [
        {
            "bufferView" : 0,
            "componentType" : 5126,
            "count" : 10348,
            "max" : [
                3.2228140830993652,
                1.801872968673706,
                19.237268447875977
            ],
            "min" : [
                -4.349067211151123,
                -1.9509161710739136,
                -3.9551260471343994
            ],
            "type" : "VEC3"
        },
        {
            "bufferView" : 1,
            "componentType" : 5126,
            "count" : 10348,
            "type" : "VEC3"
        },
        {
            "bufferView" : 2,
            "componentType" : 5123,
            "count" : 62076,
            "type" : "SCALAR"
        },
        {
            "bufferView" : 3,
            "componentType" : 5126,
            "count" : 60,
            "max" : [
                2.5
            ],
            "min" : [
                0.041666666666666664
            ],
            "type" : "SCALAR"
        },
        {
            "bufferView" : 4,
            "componentType" : 5126,
            "count" : 60,
            "type" : "VEC4"
        }
    ],
    "bufferViews" : [
        {
            "buffer" : 0,
            "byteLength" : 124176,
            "byteOffset" : 0
        },
        {
            "buffer" : 0,
            "byteLength" : 124176,
            "byteOffset" : 124176
        },
        {
            "buffer" : 0,
            "byteLength" : 124152,
            "byteOffset" : 248352
        },
        {
            "buffer" : 0,
            "byteLength" : 240,
            "byteOffset" : 372504
        },
        {
            "buffer" : 0,
            "byteLength" : 960,
            "byteOffset" : 372744
        }
    ],
    "buffers" : [
        {
            "byteLength" : 373704,
            "uri" : "data:application/octet-stream;base64,"
        }
    ]
}
